<svg width="133" height="171" viewBox="0 0 133 171" fill="none" xmlns="http://www.w3.org/2000/svg">
<path fill-rule="evenodd" clip-rule="evenodd" d="M75.4141 5.93437L120.79 32.1352C126.354 35.3568 129.463 41.1917 129.471 47.1888H129.509V99.8067C129.509 106.705 125.5 112.67 119.685 115.5L98.0045 128.012C97.6859 128.197 97.3602 128.373 97.0349 128.535L75.1519 141.169C69.5851 144.368 62.9847 144.138 57.7981 141.142L57.7819 141.169L34.9982 128.012C34.6937 127.837 34.3963 127.652 34.1075 127.463L12.2813 114.86C6.69824 111.652 3.57262 105.813 3.56721 99.8067L3.56181 73.4977H3.49512V47.1888C3.49512 40.286 7.50431 34.3204 13.3198 31.4954L57.7819 5.82624C63.4388 2.54607 70.1713 2.81641 75.4141 5.93437Z" fill="white"/>
<path fill-rule="evenodd" clip-rule="evenodd" d="M77.1587 2.92016L122.535 29.121C125.807 31.0134 128.376 33.6763 130.151 36.7492C131.39 38.9029 132.236 41.2594 132.649 43.697L133 48.4911V99.8068C133 103.857 131.831 107.656 129.807 110.891C127.731 114.207 124.756 116.897 121.232 118.623L99.7473 131.022L99.7509 131.031C99.5342 131.153 99.3427 131.261 99.1719 131.351H99.1575L98.5893 131.653L76.8825 144.184C73.6001 146.072 70.0199 146.964 66.4896 146.959C63.9953 146.955 61.5279 146.504 59.2097 145.644L33.2631 131.027H33.2509C33.0166 130.892 32.8373 130.788 32.7053 130.703L32.2777 130.419L10.5479 117.875C7.24971 115.982 4.66793 113.328 2.89718 110.269C1.06335 107.102 0.09146 103.479 0.0865037 99.8068L0.0829011 76.9898H0V47.1889C0 43.1338 1.17059 39.3399 3.19276 36.1048C5.27125 32.7886 8.24413 30.0942 11.7694 28.373L56.04 2.81653L56.0345 2.80751C59.3647 0.879064 63.0099 -0.0220723 66.6054 0.00045636C70.3105 0.022985 73.961 1.03677 77.1538 2.92918L77.1587 2.92016ZM119.043 35.1496L73.6668 8.94882L73.6389 8.92181C71.5054 7.6512 69.0611 6.97535 66.5793 6.95733C64.1872 6.94381 61.7568 7.54754 59.5265 8.83618H59.5125L15.05 34.5098L14.8319 34.6315C12.461 35.7849 10.4691 37.5827 9.08715 39.7905C7.7548 41.9127 6.98568 44.4494 6.98568 47.1889V70.0059H7.03839L7.0438 99.8068C7.0474 102.244 7.69668 104.655 8.92539 106.777C10.1099 108.818 11.8275 110.589 14.0119 111.846L35.8381 124.449L36.0161 124.557C36.0827 124.602 36.0616 124.579 36.3873 124.787L36.7428 124.998L36.7392 125.007L56.5099 136.42L56.5311 136.389L59.5427 138.128C61.6581 139.349 64.0606 139.998 66.4896 140.002C68.8443 140.007 71.2328 139.412 73.4185 138.155L95.4934 125.413L95.8733 125.219L95.8701 125.215C96.0229 125.133 96.1531 125.061 96.2572 125.003H96.2711L117.95 112.481L118.168 112.364C120.54 111.211 122.533 109.413 123.915 107.205C125.247 105.079 126.016 102.546 126.016 99.8068V50.6808H125.993L125.991 47.1889C125.988 44.7423 125.34 42.3317 124.121 40.2141C122.95 38.1865 121.237 36.4157 119.043 35.1496Z" fill="#242424"/>
<path fill-rule="evenodd" clip-rule="evenodd" d="M89.5598 42.3676C88.0215 42.3676 86.7752 41.124 86.7752 39.583C86.7752 38.0466 88.0215 36.7985 89.5598 36.7985C91.0962 36.7985 92.3443 38.0466 92.3443 39.583C92.3443 41.124 91.0962 42.3676 89.5598 42.3676ZM36.8937 71.9161C37.8372 71.9161 38.682 72.3442 39.247 73.02L39.7012 76.2146C39.2223 77.2915 38.1436 78.0484 36.8937 78.0484H29.389C28.1039 78.0484 26.8739 78.3053 25.751 78.7739C24.5841 79.256 23.5333 79.9679 22.6552 80.8465C21.7765 81.7251 21.0691 82.7704 20.5834 83.9374C20.1171 85.0638 19.8585 86.2939 19.8585 87.578V96.8508L19.612 97.0221C19.4286 97.1527 19.2583 97.2834 19.1033 97.4141C18.327 98.0764 17.6935 98.9054 17.2605 99.8426C16.8414 100.753 16.6094 101.758 16.6094 102.821C16.6094 104.105 16.9523 105.313 17.5542 106.358C18.1774 107.439 19.0731 108.34 20.1504 108.962C20.6821 109.273 21.2593 109.516 21.8667 109.679C22.456 109.836 23.0755 109.922 23.7127 109.922C24.348 109.922 24.9675 109.836 25.5591 109.679C26.1665 109.516 26.7437 109.273 27.2749 108.962C28.3504 108.34 29.2479 107.439 29.8711 106.358C30.473 105.313 30.8164 104.105 30.8164 102.821C30.8164 101.758 30.5839 100.753 30.1653 99.8426C29.7323 98.9054 29.0983 98.0764 28.3207 97.4141C28.1675 97.2834 27.9967 97.1527 27.8156 97.0221L27.5673 96.8508V87.578C27.5673 87.3347 27.6146 87.1004 27.7047 86.8886C27.7962 86.6678 27.935 86.4651 28.1039 86.2939C28.2765 86.1227 28.477 85.9875 28.6973 85.8929C28.91 85.8028 29.1443 85.7532 29.389 85.7532H41.0561L41.6563 89.9841C42.0825 92.9849 42.9219 95.801 44.0961 98.3693C45.2415 100.879 46.7058 103.15 48.4167 105.123C47.8323 105.876 47.3592 106.723 47.0194 107.628C46.6337 108.665 46.4229 109.782 46.4229 110.94V119.267C46.4229 119.51 46.3733 119.744 46.2836 119.956C46.1922 120.177 46.0548 120.38 45.884 120.551C45.7168 120.718 45.5127 120.857 45.291 120.947C45.0779 121.038 44.8459 121.087 44.5994 121.087H28.5018V123.885V124.237L36.38 128.796H36.9361H44.5994C45.884 128.796 47.1145 128.535 48.2391 128.071C49.4061 127.584 50.455 126.877 51.3332 125.998C52.2114 125.12 52.9206 124.07 53.4049 122.903C53.8731 121.776 54.1299 120.551 54.1299 119.267V110.94C54.1299 110.715 54.1705 110.503 54.2462 110.305L54.311 110.152C56.0151 111.197 57.8278 112.026 59.7179 112.598C61.7405 113.211 63.8506 113.536 66.0016 113.54H66.2602C68.4496 113.536 70.5952 113.202 72.6458 112.567C74.5819 111.972 76.4351 111.111 78.1671 110.021C78.2108 110.093 78.2495 110.17 78.2833 110.251C78.3712 110.463 78.4203 110.697 78.4203 110.94V119.267C78.4203 120.551 78.6789 121.776 79.1457 122.903C79.6296 124.07 80.3388 125.12 81.217 125.998C82.0951 126.877 83.1459 127.584 84.3129 128.071C85.4361 128.535 86.6662 128.796 87.9512 128.796H94.7414L104.05 124.457V121.087H87.9512C87.7066 121.087 87.4741 121.038 87.2592 120.947C87.0375 120.857 86.8352 120.722 86.668 120.546C86.4954 120.375 86.358 120.177 86.2666 119.956C86.1787 119.74 86.1278 119.51 86.1278 119.267V110.94C86.1278 109.742 85.9025 108.588 85.4907 107.525C85.128 106.588 84.6192 105.718 83.9943 104.948C85.6664 102.983 87.0992 100.739 88.2166 98.2656C89.3642 95.7289 90.1847 92.9488 90.6069 89.9841L91.2071 85.7532H103.617C103.862 85.7532 104.096 85.8028 104.309 85.8929C104.529 85.9875 104.731 86.1227 104.902 86.2939C105.073 86.4606 105.21 86.6678 105.301 86.8886C105.39 87.1004 105.441 87.3347 105.441 87.578V96.8508L105.191 97.0221C105.017 97.1437 104.846 97.2789 104.685 97.4141C103.908 98.0764 103.276 98.9054 102.841 99.8426C102.424 100.753 102.19 101.758 102.19 102.821C102.19 104.105 102.535 105.313 103.135 106.358C103.758 107.439 104.656 108.34 105.731 108.962C106.264 109.273 106.841 109.516 107.447 109.679C108.039 109.836 108.658 109.922 109.295 109.922C109.931 109.922 110.55 109.836 111.14 109.679C111.747 109.516 112.324 109.273 112.858 108.962C113.933 108.34 114.831 107.439 115.452 106.358C116.054 105.313 116.399 104.105 116.399 102.821C116.399 101.758 116.165 100.753 115.746 99.8426C115.314 98.9054 114.681 98.0764 113.903 97.4141C113.748 97.2834 113.579 97.1527 113.396 97.0221L113.148 96.8508V87.578C113.148 86.2939 112.889 85.0638 112.425 83.9374C111.939 82.7704 111.23 81.7251 110.351 80.8465C109.473 79.9679 108.422 79.256 107.255 78.7739C106.134 78.3053 104.902 78.0484 103.617 78.0484H95.3695C94.1182 78.0484 93.0396 77.2915 92.5624 76.2146L93.0166 73.02C93.5798 72.3442 94.4264 71.9161 95.3695 71.9161H103.617C104.902 71.9161 106.132 71.6593 107.255 71.1907C108.422 70.7041 109.473 69.9967 110.351 69.1181C111.23 68.2395 111.939 67.1896 112.425 66.0226C112.889 64.9007 113.148 63.6707 113.148 62.382V53.1092L113.396 52.9425C113.572 52.8163 113.741 52.6857 113.903 52.5505C114.681 51.8837 115.314 51.0546 115.746 50.1174C116.165 49.2118 116.399 48.2025 116.399 47.1436C116.399 45.8595 116.054 44.6475 115.452 43.6067C114.831 42.5253 113.933 41.6241 112.858 40.9978C112.324 40.6914 111.747 40.4481 111.14 40.2859C110.55 40.1237 109.931 40.0381 109.295 40.0381C108.658 40.0381 108.039 40.1237 107.447 40.2859C106.84 40.4481 106.264 40.6914 105.731 40.9978C104.656 41.6241 103.758 42.5253 103.135 43.6067C102.535 44.6475 102.19 45.8595 102.19 47.1436C102.19 48.2025 102.424 49.2118 102.841 50.1174C103.276 51.0546 103.908 51.8837 104.685 52.5505C104.846 52.6857 105.017 52.8163 105.192 52.9425L105.441 53.1092V62.382C105.441 62.6298 105.39 62.8641 105.301 63.0759C105.21 63.2967 105.073 63.4994 104.902 63.6707C104.731 63.8374 104.529 63.9771 104.309 64.0672C104.096 64.1573 103.862 64.2068 103.617 64.2068H94.266L94.5337 62.328C94.9279 59.5524 94.9455 56.8039 94.6269 54.1501C94.3205 51.5953 93.7064 49.1307 92.8192 46.8057C94.1236 46.2155 95.2411 45.2828 96.0543 44.1203C96.9555 42.8362 97.4836 41.2682 97.4836 39.583C97.4836 37.3932 96.5964 35.4152 95.1618 33.9779C93.7294 32.5451 91.7473 31.662 89.5598 31.662C88.2892 31.662 87.0884 31.9593 86.0237 32.491C85.0982 32.9551 84.2723 33.5949 83.5951 34.3699C82.2592 33.3787 80.8245 32.5271 79.3075 31.8377C77.7286 31.1213 76.0566 30.5806 74.3106 30.2472L74.1277 30.2111C72.6597 29.9408 69.3858 29.8056 66.1318 29.8056C62.8755 29.8056 59.6035 29.9408 58.1341 30.2111L58.0107 30.2336C56.2435 30.5716 54.5526 31.1168 52.9544 31.8377C51.4386 32.5271 50.0045 33.3787 48.6685 34.3699C47.9891 33.5949 47.1636 32.9551 46.2377 32.491C45.173 31.9593 43.9726 31.662 42.7038 31.662C40.5159 31.662 38.5324 32.5451 37.0996 33.9779C35.6654 35.4107 34.7801 37.3977 34.7801 39.583C34.7801 41.2682 35.3063 42.8362 36.2093 44.1203C37.0221 45.2828 38.1382 46.2155 39.4421 46.8057C38.5554 49.1307 37.9408 51.5953 37.6349 54.1501C37.3181 56.7994 37.3357 59.5524 37.7282 62.3324L37.9954 64.2068H29.389C29.1443 64.2068 28.91 64.1573 28.6973 64.0672C28.4788 63.9771 28.2765 63.8419 28.1039 63.6707C27.9332 63.4994 27.7962 63.2967 27.7047 63.0759C27.6146 62.8641 27.5673 62.6298 27.5673 62.382V53.1092L27.8156 52.9425C27.9895 52.8163 28.1585 52.6857 28.3207 52.5505C29.0983 51.8837 29.7323 51.0546 30.1653 50.1174C30.5839 49.2118 30.8164 48.2025 30.8164 47.1436C30.8164 45.8595 30.473 44.6475 29.8711 43.6067C29.2479 42.5253 28.3504 41.6241 27.2749 40.9978C26.7437 40.6914 26.1665 40.4481 25.5591 40.2859C24.9675 40.1237 24.348 40.0381 23.7127 40.0381C23.0755 40.0381 22.456 40.1237 21.8667 40.2859C21.2593 40.4481 20.6821 40.6914 20.1504 40.9978C19.0749 41.6241 18.1774 42.5253 17.5542 43.6067C16.9523 44.6475 16.6094 45.8595 16.6094 47.1436C16.6094 48.2025 16.8414 49.2118 17.2605 50.1174C17.6935 51.0546 18.327 51.8837 19.1033 52.5505C19.2651 52.6857 19.434 52.8208 19.612 52.9425L19.8585 53.1092V62.382C19.8585 63.6707 20.1171 64.9007 20.5834 66.0226C21.0691 67.1896 21.7783 68.2395 22.6552 69.1181C23.5315 69.9967 24.5841 70.7041 25.751 71.1907C26.8739 71.6548 28.1039 71.9161 29.389 71.9161H36.8937ZM45.4879 39.583C45.4879 41.1195 44.2403 42.3676 42.7038 42.3676C41.1656 42.3676 39.9175 41.1195 39.9175 39.583C39.9175 38.0466 41.1656 36.7985 42.7038 36.7985C44.2403 36.7985 45.4879 38.0466 45.4879 39.583Z" fill="#242424"/>
<path fill-rule="evenodd" clip-rule="evenodd" d="M76.8001 39.2413C81.2495 39.2413 84.8559 42.3908 84.8559 46.2793C84.8577 50.1632 81.2495 53.3127 76.8001 53.3127C72.3489 53.3127 68.7412 50.1632 68.7412 46.2793C68.7412 42.3908 72.3489 39.2413 76.8001 39.2413Z" fill="white"/>
<path fill-rule="evenodd" clip-rule="evenodd" d="M71.4552 53.7904C70.5207 54.8808 68.6531 55.6243 66.5025 55.6243C64.3145 55.6243 62.4207 54.8537 61.502 53.7318C60.2647 54.1734 59.4515 54.7772 58.9887 55.4395C58.6296 55.9577 58.512 56.5074 58.5945 57.0165C58.6774 57.5392 58.9712 58.0348 59.4271 58.4268C59.9268 58.8548 60.6117 59.1522 61.4421 59.2333C62.213 59.3054 63.1074 59.1928 64.0892 58.8233C64.3145 58.7377 64.5646 58.589 64.802 58.4493C64.9818 58.3412 65.158 58.2376 65.3373 58.1429C65.7212 57.9402 66.124 57.7915 66.6133 57.7825H66.6273C66.9634 57.778 67.3014 57.8681 67.6659 58.0032C67.9457 58.1114 68.2412 58.2465 68.5616 58.3952C69.4258 58.7872 70.5558 59.3099 71.735 59.2964C72.2946 59.2919 72.8668 59.1702 73.4246 58.8593C73.9261 58.58 74.2415 58.1744 74.3645 57.7149C74.4826 57.2868 74.4438 56.8002 74.2519 56.3091C74.0374 55.7639 73.6323 55.2142 73.0304 54.7231C72.601 54.3672 72.0747 54.0517 71.4552 53.7904Z" fill="white"/>
<path fill-rule="evenodd" clip-rule="evenodd" d="M65.3363 67.1227V60.8057C65.2007 60.8778 65.0583 60.9409 64.9052 60.9994C63.7909 61.4185 62.7352 61.5942 61.7705 61.5762V64.3968C61.7705 64.7708 61.8304 65.1312 61.9431 65.4556C62.0643 65.7981 62.2423 66.118 62.4675 66.4063C62.7721 66.7893 63.1646 67.1092 63.6115 67.33C64.0373 67.5328 64.5181 67.6499 65.0264 67.6499C65.1093 67.6499 65.1886 67.6184 65.2467 67.5643C65.3012 67.5057 65.3363 67.4291 65.3363 67.3435V67.1227Z" fill="white"/>
<path fill-rule="evenodd" clip-rule="evenodd" d="M67.665 67.1404V60.8279C67.8007 60.8955 67.943 60.9586 68.0926 61.0172C69.2105 61.4362 70.2662 61.6119 71.2309 61.5939V64.4144C71.2309 64.7929 71.1691 65.1489 71.0547 65.4733C70.9371 65.8158 70.7573 66.1402 70.532 66.424C70.2261 66.8115 69.835 67.1269 69.388 67.3477C68.9604 67.5549 68.4801 67.6721 67.9732 67.6721C67.8885 67.6721 67.811 67.636 67.7529 67.582C67.6984 67.5234 67.665 67.4513 67.665 67.3612V67.1404Z" fill="white"/>
<path fill-rule="evenodd" clip-rule="evenodd" d="M56.2039 39.2413C60.6547 39.2413 64.2611 42.3908 64.2611 46.2793C64.2611 50.1632 60.6547 53.3127 56.2039 53.3127C51.7545 53.3127 48.1445 50.1632 48.1445 46.2793C48.1445 42.3908 51.7545 39.2413 56.2039 39.2413Z" fill="white"/>
<path fill-rule="evenodd" clip-rule="evenodd" d="M76.8017 49.7031C78.6923 49.7031 80.227 48.1711 80.227 46.2787C80.227 46.1661 80.2216 46.058 80.2094 45.9453C80.0562 46.5626 79.5002 47.0132 78.8365 47.0132C78.0571 47.0132 77.4231 46.3824 77.4231 45.5984C77.4231 44.8189 78.0571 44.1881 78.8365 44.1881C79.1763 44.1836 79.4876 44.3052 79.7305 44.5035C79.1303 43.5122 78.0444 42.8544 76.8017 42.8544C74.9098 42.8544 73.377 44.3863 73.377 46.2787C73.377 48.1711 74.9098 49.7031 76.8017 49.7031Z" fill="#242424"/>
<path fill-rule="evenodd" clip-rule="evenodd" d="M56.2036 49.7031C58.0937 49.7031 59.6284 48.1711 59.6284 46.2787C59.6284 46.1661 59.623 46.058 59.6126 45.9453C59.4576 46.5626 58.9016 47.0132 58.2379 47.0132C57.4584 47.0132 56.8245 46.3824 56.8245 45.5984C56.8245 44.8189 57.4584 44.1881 58.2379 44.1881C58.5776 44.1836 58.8908 44.3052 59.1323 44.5035C58.5317 43.5122 57.4458 42.8544 56.2036 42.8544C54.3112 42.8544 52.7783 44.3863 52.7783 46.2787C52.7783 48.1711 54.3112 49.7031 56.2036 49.7031Z" fill="#242424"/>
<path fill-rule="evenodd" clip-rule="evenodd" d="M30.5677 157.196C30.5677 155.818 30.7614 154.565 31.1606 153.429C31.5549 152.285 32.1199 151.321 32.8503 150.501C33.5825 149.694 34.466 149.068 35.5046 148.626C36.5342 148.185 37.6921 147.96 38.965 147.96C40.1617 147.96 41.2142 148.086 42.119 148.329C43.0237 148.577 43.7978 148.847 44.4525 149.131C45.1076 149.419 45.6285 149.69 46.0264 149.933C46.417 150.176 46.7004 150.303 46.8834 150.303C46.9996 150.303 47.1068 150.266 47.1965 150.199C47.2862 150.131 47.3569 150.019 47.4182 149.843C47.4799 149.676 47.5295 149.446 47.5646 149.163C47.5998 148.874 47.6137 148.532 47.6137 148.144C47.6137 147.459 47.5714 146.946 47.4871 146.608C47.4114 146.256 47.2794 145.986 47.0929 145.797C46.9099 145.599 46.5896 145.378 46.1228 145.116C45.6637 144.855 45.0793 144.612 44.3822 144.391C43.6802 144.161 42.8561 143.972 41.9235 143.814C40.9836 143.652 39.945 143.575 38.7996 143.575C36.7225 143.575 34.8359 143.895 33.1445 144.535C31.444 145.175 30.0027 146.099 28.8041 147.297C27.6074 148.505 26.6815 149.969 26.0336 151.695C25.3807 153.411 25.0518 155.358 25.0518 157.525C25.0518 159.62 25.3595 161.49 25.9723 163.148C26.5846 164.806 27.4682 166.208 28.6262 167.357C29.781 168.501 31.1926 169.384 32.8593 169.988C34.5296 170.592 36.4161 170.898 38.5266 170.898C39.2516 170.898 39.968 170.867 40.6772 170.795C41.3954 170.731 42.1064 170.628 42.8016 170.488C43.5059 170.357 44.1799 170.191 44.8346 170.002C45.4911 169.803 46.0403 169.628 46.4783 169.447C46.9239 169.272 47.2177 169.028 47.3569 168.722C47.5011 168.416 47.5714 168.06 47.5714 167.645V157.12C47.5714 156.845 47.538 156.606 47.4677 156.39C47.4042 156.178 47.3024 155.998 47.1753 155.854C47.0433 155.7 46.8955 155.588 46.7216 155.511C46.5558 155.435 46.3607 155.398 46.144 155.398H37.2312C37.1131 155.398 37.0023 155.435 36.9036 155.511C36.8122 155.588 36.7297 155.7 36.6608 155.858C36.5977 156.011 36.5432 156.223 36.508 156.48C36.4724 156.737 36.4585 157.057 36.4585 157.431C36.4585 158.17 36.5274 158.688 36.6608 158.994C36.8 159.3 36.9883 159.454 37.2312 159.454H42.2244V165.608C41.7229 165.879 41.1791 166.086 40.5875 166.226C40.0031 166.361 39.4102 166.433 38.81 166.433C37.5939 166.428 36.4724 166.235 35.4555 165.838C34.4448 165.442 33.5757 164.856 32.8503 164.081C32.1343 163.302 31.5693 162.342 31.166 161.193C30.7682 160.035 30.5677 158.706 30.5677 157.196Z" fill="#242424"/>
<path fill-rule="evenodd" clip-rule="evenodd" d="M52.2533 156.574C51.8433 157.854 51.6338 159.278 51.6338 160.823C51.6338 162.432 51.8221 163.86 52.2042 165.104C52.5877 166.361 53.172 167.411 53.9587 168.267C54.7454 169.123 55.7416 169.781 56.9384 170.222C58.1373 170.677 59.5436 170.898 61.1661 170.898C62.8382 170.898 64.2989 170.646 65.5524 170.15C66.8055 169.637 67.844 168.929 68.6708 168.005C69.5071 167.077 70.1212 165.978 70.5313 164.703C70.9417 163.423 71.1458 162.008 71.1458 160.463C71.1458 158.836 70.9557 157.404 70.5718 156.16C70.1915 154.903 69.6125 153.858 68.824 152.997C68.0463 152.141 67.0569 151.492 65.8584 151.046C64.6598 150.609 63.2482 150.388 61.6117 150.388C59.9396 150.388 58.4766 150.636 57.2394 151.136C55.9917 151.645 54.9549 152.357 54.1259 153.267C53.2901 154.186 52.6706 155.286 52.2533 156.574ZM56.8983 160.603C56.8983 159.634 56.9879 158.778 57.1763 158.016C57.3556 157.268 57.6354 156.62 58.0053 156.083C58.373 155.547 58.8466 155.137 59.4183 154.853C59.996 154.578 60.6646 154.439 61.4283 154.439C62.2943 154.439 63.0053 154.592 63.5758 154.907C64.139 155.218 64.5914 155.66 64.9329 156.214C65.2812 156.768 65.5168 157.426 65.6633 158.183C65.8092 158.936 65.8795 159.765 65.8795 160.661C65.8795 161.63 65.7899 162.486 65.6137 163.247C65.4326 164 65.1631 164.64 64.7937 165.176C64.4242 165.703 63.9524 166.109 63.3802 166.388C62.803 166.667 62.1272 166.807 61.3477 166.807C60.4974 166.807 59.7864 166.654 59.216 166.347C58.637 166.037 58.1847 165.608 57.8504 165.05C57.516 164.491 57.2732 163.838 57.12 163.081C56.974 162.328 56.8983 161.499 56.8983 160.603Z" fill="#242424"/>
<path fill-rule="evenodd" clip-rule="evenodd" d="M75.2227 151.533V169.749C75.2227 169.88 75.265 170.002 75.3497 170.105C75.4254 170.209 75.5642 170.295 75.7665 170.362C75.9638 170.425 76.2261 170.479 76.5464 170.52C76.874 170.551 77.2908 170.565 77.7927 170.565C78.296 170.565 78.7132 170.551 79.0403 170.52C79.3589 170.479 79.6229 170.425 79.8203 170.362C80.0226 170.295 80.1614 170.209 80.2371 170.105C80.3218 170.002 80.3623 169.88 80.3623 169.749V158.395C80.7458 157.796 81.1013 157.291 81.4343 156.881C81.7686 156.48 82.0907 156.151 82.3967 155.908C82.7031 155.655 83.0022 155.484 83.2874 155.367C83.5709 155.245 83.8592 155.191 84.1426 155.191C84.3873 155.191 84.609 155.209 84.8185 155.259L85.3768 155.417L85.8377 155.565C85.9751 155.615 86.0999 155.633 86.2054 155.633C86.3446 155.633 86.4554 155.61 86.5469 155.538C86.6298 155.466 86.7073 155.345 86.7618 155.169C86.8109 154.998 86.8533 154.75 86.8812 154.439C86.9096 154.124 86.9218 153.718 86.9218 153.236L86.9006 152.078C86.8866 151.79 86.8672 151.578 86.8393 151.438L86.7478 151.096C86.7141 151.019 86.6577 150.942 86.5874 150.87C86.5117 150.803 86.3937 150.74 86.2247 150.677L85.6548 150.519L85.0213 150.415L84.4508 150.388C84.067 150.388 83.6835 150.438 83.3086 150.541C82.9247 150.636 82.5413 150.816 82.161 151.078C81.7825 151.33 81.3797 151.69 80.9553 152.127C80.5362 152.565 80.0843 153.123 79.6108 153.808V151.533C79.6108 151.402 79.5756 151.285 79.5067 151.177C79.4364 151.078 79.3256 150.992 79.1706 150.92C79.0124 150.861 78.7889 150.803 78.5037 150.767C78.2167 150.735 77.863 150.717 77.4246 150.717C77.0056 150.717 76.6519 150.735 76.3721 150.767C76.094 150.803 75.8724 150.861 75.6895 150.92C75.5169 150.992 75.3903 151.078 75.3285 151.177C75.2596 151.285 75.2227 151.402 75.2227 151.533Z" fill="#242424"/>
<path fill-rule="evenodd" clip-rule="evenodd" d="M42.7004 42.3679C44.2369 42.3679 45.4845 41.1198 45.4845 39.5834C45.4845 38.0469 44.2369 36.7988 42.7004 36.7988C41.1621 36.7988 39.9141 38.0469 39.9141 39.5834C39.9141 41.1198 41.1621 42.3679 42.7004 42.3679Z" fill="white"/>
<path fill-rule="evenodd" clip-rule="evenodd" d="M89.5588 36.7988C88.0206 36.7988 86.7725 38.0469 86.7725 39.5834C86.7725 41.1198 88.0206 42.3679 89.5588 42.3679C91.0953 42.3679 92.3433 41.1198 92.3433 39.5834C92.3433 38.0469 91.0953 36.7988 89.5588 36.7988Z" fill="white"/>
<path fill-rule="evenodd" clip-rule="evenodd" d="M89.059 156.574C88.649 157.854 88.4395 159.278 88.4395 160.823C88.4395 162.432 88.6278 163.86 89.0099 165.104C89.392 166.361 89.9777 167.411 90.7662 168.267C91.5516 169.123 92.5478 169.781 93.7445 170.222C94.943 170.677 96.3492 170.898 97.9722 170.898C99.6443 170.898 101.105 170.646 102.358 170.15C103.613 169.637 104.65 168.929 105.479 168.005C106.313 167.077 106.927 165.978 107.337 164.703C107.747 163.423 107.951 162.008 107.951 160.463C107.951 158.836 107.761 157.404 107.38 156.16C106.998 154.903 106.419 153.858 105.632 152.997C104.85 152.141 103.863 151.492 102.666 151.046C101.467 150.609 100.054 150.388 98.4174 150.388C96.7453 150.388 95.2828 150.636 94.0455 151.136C92.7974 151.645 91.7606 152.357 90.932 153.267C90.0976 154.186 89.4762 155.286 89.059 156.574ZM93.704 160.603C93.704 159.634 93.7936 158.778 93.9819 158.016C94.1617 157.268 94.4415 156.62 94.811 156.083C95.1787 155.547 95.6522 155.137 96.2245 154.853C96.8016 154.578 97.4703 154.439 98.2362 154.439C99.1004 154.439 99.8096 154.592 100.381 154.907C100.945 155.218 101.397 155.66 101.739 156.214C102.087 156.768 102.325 157.426 102.469 158.183C102.617 158.936 102.686 159.765 102.686 160.661C102.686 161.63 102.596 162.486 102.422 163.247C102.24 164 101.969 164.64 101.601 165.176C101.23 165.703 100.758 166.109 100.186 166.388C99.6073 166.667 98.9328 166.807 98.1534 166.807C97.3031 166.807 96.5921 166.654 96.0221 166.347C95.4445 166.037 94.9921 165.608 94.656 165.05C94.3235 164.491 94.0806 163.838 93.9274 163.081C93.7796 162.328 93.704 161.499 93.704 160.603Z" fill="#242424"/>
</svg>
